HIERARCHY
ROOT Hips
{
	OFFSET 0.00000 0.00000 0.00000
	CHANNELS 6 Xposition Yposition Zposition Zrotation Yrotation Xrotation 
	JOINT LHipJoint
	{
		OFFSET 0 0 0
		CHANNELS 3 Zrotation Yrotation Xrotation
		JOINT LeftHip
		{
			OFFSET 1.75344 -1.53157 0.77399
			CHANNELS 3 Zrotation Yrotation Xrotation
			JOINT LeftKnee
			{
				OFFSET 2.25415 -6.19323 0.00000
				CHANNELS 3 Zrotation Yrotation Xrotation
				JOINT LeftAnkle
				{
					OFFSET 2.30342 -6.32861 0.00000
					CHANNELS 3 Zrotation Yrotation Xrotation
					JOINT LeftToe
					{
						OFFSET 0.10958 -0.30108 1.49206
						CHANNELS 3 Zrotation Yrotation Xrotation
						End Site
						{
							OFFSET 0.00000 -0.00000 0.77783
						}
					}
				}
			}
		}
	}
	JOINT RHipJoint
	{
		OFFSET 0 0 0
		CHANNELS 3 Zrotation Yrotation Xrotation
		JOINT RightHip
		{
			OFFSET -1.81912 -1.53156 0.77399
			CHANNELS 3 Zrotation Yrotation Xrotation
			JOINT RightKnee
			{
				OFFSET -2.22882 -6.12365 0.00000
				CHANNELS 3 Zrotation Yrotation Xrotation
				JOINT RightAnkle
				{
					OFFSET -2.21943 -6.09785 0.00000
					CHANNELS 3 Zrotation Yrotation Xrotation
					JOINT RightToe
					{
						OFFSET -0.18931 -0.52012 1.59379
						CHANNELS 3 Zrotation Yrotation Xrotation
						End Site
						{
							OFFSET -0.00000 -0.00000 0.84686
						}
					}
				}
			}
		}
	}
	JOINT lowerback
	{
		OFFSET 0 0 0
		CHANNELS 3 Zrotation Yrotation Xrotation
		JOINT Chest
		{
			OFFSET -0.00200 1.66634 -0.14248
			CHANNELS 3 Zrotation Yrotation Xrotation
			JOINT Chest2
			{
				OFFSET -0.00875 1.64542 0.09514
				CHANNELS 3 Zrotation Yrotation Xrotation
				JOINT lowerneck
				{
					OFFSET 0 0 0
					CHANNELS 3 Zrotation Yrotation Xrotation
					JOINT Neck
					{
						OFFSET 0.02257 1.59605 0.00839
						CHANNELS 3 Zrotation Yrotation Xrotation
						JOINT Head
						{
							OFFSET -0.10214 1.57530 -0.23335
							CHANNELS 3 Zrotation Yrotation Xrotation
							End Site
							{
								OFFSET -0.03588 1.60717 -0.08062
							}
						}
					}
				}
				JOINT LeftCollar
				{
					OFFSET 0 0 0
					CHANNELS 3 Zrotation Yrotation Xrotation
					JOINT LeftShoulder
					{
						OFFSET 2.54983 1.10186 0.40078
CHANNELS 3 Zrotation Xrotation Yrotation
						JOINT LeftElbow
						{
OFFSET 0 -4.288400 0.000000
CHANNELS 3 Zrotation Xrotation Yrotation
							JOINT LeftWrist
							{
OFFSET 0 -3.065520 -0.000000
CHANNELS 3 Zrotation Xrotation Yrotation
								JOINT lhand
								{
									OFFSET 0 0 0
CHANNELS 3 Zrotation Xrotation Yrotation
									JOINT LFingers
									{
OFFSET 0 -0.753040 0.000000
CHANNELS 3 Zrotation Xrotation Yrotation
										End Site
										{
OFFSET 0 -0.607120 0.000000
										}
									}
								}
								JOINT LThumb
								{
OFFSET 0 0.000000 0.000000
CHANNELS 3 Zrotation Xrotation Yrotation
									End Site
									{
OFFSET 0 -0.616390 0.616390
									}
								}
							}
						}
					}
				}
				JOINT RightCollar
				{
					OFFSET 0 0 0
					CHANNELS 3 Zrotation Yrotation Xrotation
					JOINT RightShoulder
					{
						OFFSET -2.60909 1.35448 0.21802
CHANNELS 3 Zrotation Xrotation Yrotation
						JOINT RightElbow
						{
OFFSET 0 -4.521720 -0.000000
CHANNELS 3 Zrotation Xrotation Yrotation
							JOINT RightWrist
							{
OFFSET 0 -2.891400 0.000000
CHANNELS 3 Zrotation Xrotation Yrotation
								JOINT rhand
								{
									OFFSET 0 0 0
CHANNELS 3 Zrotation Xrotation Yrotation
									JOINT RFingers
									{
OFFSET 0 -0.680540 0.000000
CHANNELS 3 Zrotation Xrotation Yrotation
										End Site
										{
OFFSET 0 -0.548670 0.000000
										}
									}
								}
								JOINT RThumb
								{
OFFSET 0 0.000000 0.000000
CHANNELS 3 Zrotation Xrotation Yrotation
									End Site
									{
OFFSET 0 -0.557050 0.557050
									}
								}
							}
						}
					}
				}
			}
		}
	}
}
MOTION
Frames: 5
Frame Time: 0.008333333333333333
7.983115 15.300082 -36.897976 357.901963 -62.318851 4.703820 0.000000 0.000000 0.000000 -13.549184 -36.499772 -16.268343 2.588578 9.997210 28.967707 2.175886 -10.488467 -26.552596 6.849997 -15.195681 -48.289298 0.000000 0.000000 0.000000 29.762705 11.787692 4.352990 -1.249424 -7.086775 19.972810 -0.652215 -15.921488 -28.068527 -0.002140 0.131996 -0.362656 7.891923 8.694697 4.589086 -0.319366 12.172014 -3.760690 -5.514023 5.731043 -4.804844 8.290607 10.559200 -10.714760 -12.798620 12.788649 -7.574139 -4.552739 6.062731 0.863583 0.000000 0.000000 0.000000 39.286673 40.790415 2.364621 25.425559 -36.635756 8.542572 6.889499 -1.479123 36.622173 0.000000 0.000000 0.000000 -7.125000 0.000000 0.000000 -14.268895 -5.842771 -16.133355 0.000000 0.000000 0.000000 -36.876250 -34.135439 56.672495 -41.980737 -49.196374 -19.927210 -1.751646 9.983947 48.399050 0.000000 0.000000 0.000000 7.125000 0.000000 0.000000 -17.666166 -15.113263 -166.904639
8.222783 15.327247 -37.037622 358.997142 -54.434214 3.800275 0.000000 0.000000 0.000000 -14.480536 -31.671220 -19.562226 2.604765 10.025826 29.060453 2.063306 -4.453666 -26.151205 4.189952 -12.402178 -37.180063 0.000000 0.000000 0.000000 30.177265 10.983844 3.284057 -1.202513 -6.957386 19.589123 -0.388743 -19.686477 -30.619143 -0.339226 -3.736150 10.336293 9.098731 8.325239 5.532617 0.172994 11.919235 -4.217602 -5.842360 5.485473 -5.743364 9.143300 9.227115 -8.971332 -12.550287 11.075017 -7.760682 -4.818615 5.269997 0.400695 0.000000 0.000000 0.000000 32.130403 42.820846 3.062492 22.720942 -33.781331 6.982960 8.273424 1.437269 34.995720 0.000000 0.000000 0.000000 -7.125000 0.000000 0.000000 -13.414805 -4.450857 -14.813291 0.000000 0.000000 0.000000 -38.157037 -27.828255 59.885729 -52.576566 -53.982772 -28.245441 -1.243185 11.311140 53.439622 0.000000 0.000000 0.000000 7.125000 0.000000 0.000000 -17.606116 -10.437032 -165.134549
8.456477 15.363851 -37.198704 360.154730 -45.898854 3.096475 0.000000 0.000000 0.000000 -16.857797 -26.675229 -21.624682 2.921206 10.566118 30.830476 1.997597 1.724388 -27.386046 3.783196 -11.865704 -35.259054 0.000000 0.000000 0.000000 30.200036 10.172487 1.316802 -1.314720 -7.262528 20.495644 -0.490215 -23.700505 -36.163458 -0.732002 -5.466251 15.243394 8.635111 7.191207 5.615967 1.604332 10.430688 -3.901825 -4.063421 4.783827 -6.027801 7.154066 8.263297 -8.680713 -11.188113 9.937742 -8.786690 -4.557754 4.772450 -0.300274 0.000000 0.000000 0.000000 19.685468 42.571694 11.373844 19.819085 -30.422876 5.439913 5.767916 8.516998 32.991955 0.000000 0.000000 0.000000 -7.125000 0.000000 0.000000 -14.657044 -2.204387 -15.725900 0.000000 0.000000 0.000000 -38.519837 -22.268655 62.428716 -58.733496 -55.961472 -33.289770 -0.717419 12.432344 47.561672 0.000000 0.000000 0.000000 7.125000 0.000000 0.000000 -18.211398 -16.110866 -166.869382
8.674531 15.359982 -37.359882 360.630140 -36.602437 2.588114 0.000000 0.000000 0.000000 -19.035890 -21.395641 -23.548730 3.896619 12.020282 35.805392 2.032346 1.489163 -27.533975 0.598413 -4.886849 -13.599367 0.000000 0.000000 0.000000 30.348734 8.571890 -0.380306 -1.355335 -7.369327 20.814297 -0.244514 -27.163595 -39.277075 -1.983397 -8.829919 25.265748 8.256837 7.010625 6.529899 2.147795 10.331813 -4.295579 -3.476468 4.690213 -7.156284 6.055303 6.016146 -9.615629 -8.913431 7.087513 -8.353834 -3.755780 3.361720 -0.429412 0.000000 0.000000 0.000000 12.788103 40.435643 11.810979 17.914609 -28.047157 4.509323 2.496490 17.487856 31.103007 0.000000 0.000000 0.000000 -7.125000 0.000000 0.000000 -16.409032 -0.065013 -17.140480 0.000000 0.000000 0.000000 -37.668663 -10.431371 59.697920 -62.987032 -57.054713 -36.837407 2.083138 10.138978 44.721840 0.000000 0.000000 0.000000 7.125000 0.000000 0.000000 -19.895650 -19.342005 -167.016026
8.846035 15.361571 -37.505115 360.827985 -27.647837 2.498522 0.000000 0.000000 0.000000 -19.766938 -16.643550 -24.725286 5.054717 13.444680 41.057652 1.812968 6.141540 -28.263802 2.098201 -9.055790 -25.978307 0.000000 0.000000 0.000000 30.484112 7.585852 -2.022367 -1.463504 -7.645494 21.642502 -0.814719 -29.116055 -44.174160 -3.878538 -11.995979 35.719202 8.090529 6.545675 6.014949 2.507838 9.674256 -4.368464 -2.901478 4.391647 -7.098783 4.388979 3.572801 -9.682256 -6.412249 4.040801 -9.183648 -2.720752 1.897417 -1.029073 0.000000 0.000000 0.000000 6.821741 38.864621 5.954145 17.486741 -27.494965 4.309657 -1.629704 22.300600 31.464267 0.000000 0.000000 0.000000 -7.125000 0.000000 0.000000 -18.672171 -0.088341 -19.781253 0.000000 0.000000 0.000000 -33.430529 0.643235 53.333784 -59.146768 -56.076968 -33.632411 7.263298 7.561857 49.929057 0.000000 0.000000 0.000000 7.125000 0.000000 0.000000 -21.537898 -15.298143 -163.694418
